<?xml version="1.0" encoding="UTF-8"?>
<!DOCTYPE svg PUBLIC "-//W3C//DTD SVG 1.1//EN" "http://www.w3.org/Graphics/SVG/1.1/DTD/svg11.dtd">
<svg xmlns="http://www.w3.org/2000/svg" version="1.1" width="52px" height="45px" style="shape-rendering:geometricPrecision; text-rendering:geometricPrecision; image-rendering:optimizeQuality; fill-rule:evenodd; clip-rule:evenodd" xmlns:xlink="http://www.w3.org/1999/xlink">
<g><path style="opacity:0.943" fill="#dadada" d="M 17.5,-0.5 C 22.8333,-0.5 28.1667,-0.5 33.5,-0.5C 41.7104,2.37873 47.7104,7.71207 51.5,15.5C 51.5,19.8333 51.5,24.1667 51.5,28.5C 48.9422,34.062 44.9422,38.3953 39.5,41.5C 36.6141,40.1208 34.1141,38.1208 32,35.5C 31.6174,36.056 31.1174,36.3893 30.5,36.5C 30.5,35.5 30.5,34.5 30.5,33.5C 29.5,33.5 28.5,33.5 27.5,33.5C 28.8671,30.2575 30.7004,27.2575 33,24.5C 33.765,22.9343 33.5983,21.6009 32.5,20.5C 34.056,8.90984 29.056,4.74317 17.5,8C 13.6729,11.3077 12.5063,15.4744 14,20.5C 14.2784,19.5842 14.7784,18.9175 15.5,18.5C 15.045,20.3666 14.3784,22.1999 13.5,24C 15.0375,27.5745 16.7042,31.0745 18.5,34.5C 18.2927,36.6036 18.126,38.937 18,41.5C 17.6582,39.3808 16.8249,39.0474 15.5,40.5C 14.391,40.5569 13.391,40.8902 12.5,41.5C 6.46824,38.8016 2.13491,34.4683 -0.5,28.5C -0.5,24.1667 -0.5,19.8333 -0.5,15.5C 3.28956,7.71207 9.28956,2.37873 17.5,-0.5 Z"/></g>
<g><path style="opacity:1" fill="#a6a6a6" d="M 32.5,20.5 C 31.9232,21.7733 31.2565,21.7733 30.5,20.5C 29.8847,17.9607 29.2181,15.4607 28.5,13C 24.5,12.3333 20.5,12.3333 16.5,13C 15.5939,14.6995 15.2606,16.5328 15.5,18.5C 14.7784,18.9175 14.2784,19.5842 14,20.5C 12.5063,15.4744 13.6729,11.3077 17.5,8C 29.056,4.74317 34.056,8.90984 32.5,20.5 Z"/></g>
<g><path style="opacity:1" fill="#f3f3f3" d="M 32.5,20.5 C 33.5983,21.6009 33.765,22.9343 33,24.5C 30.7004,27.2575 28.8671,30.2575 27.5,33.5C 24.5701,34.299 21.5701,34.6323 18.5,34.5C 16.7042,31.0745 15.0375,27.5745 13.5,24C 14.3784,22.1999 15.045,20.3666 15.5,18.5C 15.2606,16.5328 15.5939,14.6995 16.5,13C 20.5,12.3333 24.5,12.3333 28.5,13C 29.2181,15.4607 29.8847,17.9607 30.5,20.5C 31.2565,21.7733 31.9232,21.7733 32.5,20.5 Z"/></g>
<g><path style="opacity:1" fill="#ebebeb" d="M 27.5,33.5 C 28.5,33.5 29.5,33.5 30.5,33.5C 30.5,34.5 30.5,35.5 30.5,36.5C 28.8333,39.1667 27.1667,41.8333 25.5,44.5C 22.8333,44.5 20.1667,44.5 17.5,44.5C 16.5,43.8333 15.5,43.1667 14.5,42.5C 14.8333,41.8333 15.1667,41.1667 15.5,40.5C 16.8249,39.0474 17.6582,39.3808 18,41.5C 18.126,38.937 18.2927,36.6036 18.5,34.5C 21.5701,34.6323 24.5701,34.299 27.5,33.5 Z"/></g>
<g><path style="opacity:0.853" fill="#a6a6a6" d="M 39.5,41.5 C 37.4261,42.5139 35.4261,43.5139 33.5,44.5C 30.8333,44.5 28.1667,44.5 25.5,44.5C 27.1667,41.8333 28.8333,39.1667 30.5,36.5C 31.1174,36.3893 31.6174,36.056 32,35.5C 34.1141,38.1208 36.6141,40.1208 39.5,41.5 Z"/></g>
<g><path style="opacity:0.655" fill="#9a9a9a" d="M 15.5,40.5 C 15.1667,41.1667 14.8333,41.8333 14.5,42.5C 13.5084,42.6716 12.8417,42.3382 12.5,41.5C 13.391,40.8902 14.391,40.5569 15.5,40.5 Z"/></g>
</svg>
